<svg width="267" height="52" viewBox="0 0 267 52" fill="none" xmlns="http://www.w3.org/2000/svg">
<g clip-path="url(#clip0_1779_72)">
<path d="M187.236 35.894H61.0332V37.5014H187.236V35.894Z" fill="#E8EAEA"/>
<path d="M267 50.3926H0V51.9891H267V50.3926Z" fill="#E8EAEA"/>
<path d="M267.011 35.894H247.105V37.5014H267.011V35.894Z" fill="#E8EAEA"/>
<path d="M12.1799 0.934082H9.33789V46.7002H12.1799V0.934082Z" fill="#293666"/>
<path d="M48.5022 0.934082H45.6602V46.7002H48.5022V0.934082Z" fill="#293666"/>
<path d="M19.9484 39.2713C19.6584 39.4512 19.3444 39.5901 19.0156 39.684V40.4877H20.1129V46.6781H21.5724V38.7065H20.6177C20.4418 38.9353 20.2217 39.1273 19.9703 39.2713" fill="#293666"/>
<path d="M32.2397 41.2153C32.0174 41.2167 31.7975 41.261 31.5923 41.3456C31.3607 41.4372 31.1457 41.5656 30.9559 41.7258L31.0766 39.8578H33.4907V38.7065H29.9463L29.7927 42.9313H30.9559C31.0151 42.7428 31.1251 42.5738 31.2741 42.4425C31.4059 42.3328 31.5738 42.2749 31.7459 42.2796C31.83 42.2727 31.9147 42.2837 31.9942 42.3118C32.0736 42.3399 32.1461 42.3845 32.2068 42.4425C32.3167 42.5851 32.3677 42.7637 32.3495 42.9421V44.973C32.3679 45.1835 32.3051 45.393 32.1739 45.5595C32.116 45.6297 32.042 45.6851 31.9579 45.721C31.8739 45.7569 31.7824 45.7723 31.6911 45.7659C31.5862 45.774 31.4809 45.7576 31.3837 45.718C31.2865 45.6784 31.2001 45.6166 31.1314 45.5378C30.9961 45.3398 30.9305 45.1031 30.9449 44.8644V44.4626H29.672V44.7015C29.6305 45.2793 29.8063 45.8518 30.1658 46.3089C30.3509 46.4977 30.5754 46.6442 30.8238 46.738C31.0721 46.8318 31.3382 46.8707 31.6033 46.8519C31.8745 46.8665 32.1459 46.828 32.402 46.7385C32.6581 46.6491 32.8938 46.5104 33.0956 46.3306C33.2858 46.1488 33.4341 45.9286 33.5307 45.6849C33.6273 45.4413 33.6697 45.18 33.6553 44.9187V42.9313C33.6815 42.4847 33.5496 42.043 33.2822 41.6823C33.1484 41.5275 32.9787 41.4071 32.7875 41.3314C32.5964 41.2558 32.3896 41.2271 32.1849 41.2479" fill="#293666"/>
<path d="M26.4681 42.0517C26.4018 42.2035 26.2909 42.3322 26.1498 42.4209C26.0293 42.4993 25.8881 42.5408 25.7438 42.5404C25.6438 42.5487 25.5432 42.5322 25.4513 42.4924C25.3593 42.4526 25.2788 42.3907 25.2171 42.3123C25.0831 42.102 25.0215 41.8543 25.0415 41.6064V40.5203C25.0312 40.304 25.0929 40.0904 25.2171 39.9122C25.2839 39.8411 25.3658 39.7857 25.4569 39.75C25.548 39.7143 25.6461 39.6992 25.7438 39.7058C25.8404 39.7013 25.9369 39.7164 26.0275 39.75C26.118 39.7836 26.2007 39.8351 26.2705 39.9013C26.3386 39.974 26.3912 40.0596 26.4251 40.1529C26.4591 40.2462 26.4737 40.3453 26.4681 40.4443V42.0517ZM25.7548 38.5872C25.4497 38.5673 25.1439 38.6144 24.8593 38.7252C24.5748 38.836 24.3185 39.0076 24.1088 39.2279C23.7052 39.79 23.5112 40.4733 23.5602 41.1611C23.5174 41.8075 23.6744 42.4514 24.0101 43.0074C24.1675 43.2139 24.3741 43.3785 24.6116 43.4866C24.8491 43.5946 25.1099 43.6427 25.3707 43.6264C25.4982 43.6431 25.6273 43.6431 25.7548 43.6264C25.8235 43.6145 25.8901 43.5926 25.9523 43.5613C26.1472 43.4819 26.3258 43.3678 26.479 43.2246V45.1035C26.4818 45.1892 26.4656 45.2744 26.4314 45.3532C26.3973 45.432 26.3461 45.5025 26.2815 45.5596C26.1335 45.6796 25.946 45.7414 25.7548 45.7334C25.5609 45.7374 25.3713 45.6762 25.2171 45.5596C25.1525 45.5025 25.1013 45.432 25.0672 45.3532C25.0331 45.2744 25.0168 45.1892 25.0196 45.1035V44.5604H23.6041V44.8102C23.5898 45.0838 23.6331 45.3574 23.7314 45.6135C23.8296 45.8697 23.9806 46.1028 24.1747 46.2981C24.3774 46.4883 24.6173 46.6356 24.8796 46.7308C25.1418 46.8261 25.421 46.8673 25.6999 46.852C26.2687 46.8761 26.8255 46.686 27.2581 46.3198C27.4536 46.1278 27.6056 45.8967 27.704 45.6421C27.8024 45.3874 27.8449 45.115 27.8287 44.8428V40.7593C27.8715 40.1609 27.6788 39.5695 27.2911 39.1085C27.0839 38.9232 26.841 38.7815 26.5769 38.6919C26.3129 38.6023 26.0332 38.5667 25.7548 38.5872Z" fill="#293666"/>
<path d="M38.0331 45.4296C37.9828 45.5233 37.9065 45.6007 37.8131 45.6527C37.7198 45.7046 37.6133 45.729 37.5063 45.7229C37.3946 45.7247 37.2845 45.6964 37.1878 45.6409C37.0911 45.5854 37.0116 45.5048 36.9577 45.4079C36.8208 45.0626 36.7609 44.6922 36.7821 44.3219C36.7588 44.0008 36.8193 43.6792 36.9577 43.3879C37.0176 43.3002 37.1 43.2299 37.1964 43.1841C37.2928 43.1383 37.3998 43.1187 37.5063 43.1272C37.6137 43.1182 37.7213 43.1414 37.8153 43.1937C37.9092 43.2459 37.9851 43.325 38.0331 43.4204C38.1702 43.7654 38.2229 44.1375 38.1867 44.5065C38.2128 44.8468 38.1602 45.1885 38.0331 45.5057V45.4296ZM36.9357 39.8365C36.9855 39.7526 37.0584 39.6846 37.1458 39.6403C37.2333 39.5961 37.3317 39.5775 37.4295 39.5867C37.5273 39.5775 37.6258 39.5961 37.7132 39.6403C37.8007 39.6846 37.8736 39.7526 37.9233 39.8365C38.0431 40.1289 38.0919 40.4451 38.066 40.7596C38.0892 41.0634 38.0403 41.3684 37.9233 41.6502C37.8788 41.7343 37.8104 41.8038 37.7266 41.8501C37.6428 41.8963 37.5472 41.9175 37.4515 41.9108C37.3543 41.9152 37.2577 41.8945 37.1711 41.8507C37.0845 41.8069 37.011 41.7416 36.9577 41.661C36.8379 41.3686 36.7891 41.0524 36.815 40.7379C36.7897 40.4305 36.8386 40.1215 36.9577 39.8365H36.9357ZM39.284 43.2575C39.1623 42.9335 38.9185 42.6688 38.6037 42.519C38.8676 42.3548 39.0714 42.1112 39.1852 41.8239C39.3135 41.4761 39.3767 41.1081 39.3718 40.7379C39.4111 40.1837 39.2344 39.6357 38.878 39.2066C38.701 39 38.4782 38.8367 38.227 38.7293C37.9757 38.6219 37.7028 38.5734 37.4295 38.5875C37.1687 38.5691 36.9069 38.6072 36.6625 38.6991C36.418 38.791 36.1967 38.9345 36.014 39.1197C35.6549 39.5516 35.478 40.1041 35.5202 40.6619C35.5097 41.0325 35.5731 41.4015 35.7067 41.7479C35.822 42.0348 36.0305 42.2755 36.2993 42.4321C35.9891 42.5996 35.7425 42.8627 35.597 43.1815C35.4306 43.5767 35.3521 44.0026 35.3666 44.4305C35.3035 45.0711 35.4705 45.7133 35.8384 46.2442C36.0315 46.4537 36.27 46.6173 36.5361 46.7226C36.8021 46.828 37.0888 46.8723 37.3747 46.8524C37.6561 46.8711 37.9383 46.8272 38.2003 46.7238C38.4624 46.6205 38.6977 46.4603 38.889 46.255C39.2722 45.7668 39.4597 45.1557 39.4157 44.5391C39.4311 44.0759 39.3527 43.6143 39.1852 43.1815" fill="#293666"/>
<path d="M28.4753 2.3566C25.344 2.35875 22.2837 3.2797 19.6812 5.00303C17.0787 6.72636 15.0509 9.1747 13.8541 12.0385C12.6573 14.9023 12.3453 18.053 12.9575 21.0923C13.5697 24.1316 15.0787 26.923 17.2936 29.1137C19.5085 31.3043 22.3299 32.7958 25.4012 33.3996C28.4724 34.0034 31.6556 33.6925 34.5483 32.506C37.441 31.3195 39.9134 29.3108 41.6528 26.7339C43.3922 24.1569 44.3206 21.1274 44.3206 18.0283C44.3148 13.8718 42.6432 9.88732 39.6725 6.94924C36.7019 4.01117 32.6749 2.35947 28.4753 2.3566ZM28.4753 36.0241C24.8726 36.0241 21.3508 34.9668 18.3553 32.9858C15.3598 31.0048 13.025 28.1891 11.6463 24.8949C10.2677 21.6006 9.90693 17.9757 10.6098 14.4785C11.3126 10.9814 13.0475 7.76901 15.595 5.24769C18.1425 2.72637 21.3882 1.00933 24.9216 0.313704C28.4551 -0.381926 32.1176 -0.0249034 35.4461 1.33962C38.7745 2.70415 41.6194 5.0149 43.6209 7.97965C45.6225 10.9444 46.6908 14.43 46.6908 17.9957C46.6879 22.7762 44.7678 27.3602 41.3524 30.7405C37.937 34.1209 33.3055 36.0212 28.4753 36.0241Z" fill="#293666"/>
<path d="M35.3329 25.435H35.2671C35.1536 25.4962 35.047 25.569 34.9489 25.6522H34.883L34.6087 25.902L34.5429 25.9672L34.2576 26.2604L34.0052 26.5319H33.3468L33.0176 26.8577V27.1836L33.3468 27.5094C33.2452 27.5858 33.1627 27.6843 33.1056 27.7973C33.0485 27.9103 33.0184 28.0347 33.0176 28.161C33.1822 28.161 33.676 28.313 33.8406 28.313C33.9078 28.3095 33.9725 28.2868 34.0271 28.2479L34.2137 28.0741C34.3234 27.9546 34.4441 27.8026 34.5758 27.6397C34.7345 27.4468 34.903 27.2619 35.0805 27.0858C35.0535 26.7551 35.11 26.4229 35.2451 26.1192L34.9159 25.7934C35.0805 25.6305 35.4097 25.4676 35.5743 25.3047C35.4712 25.3163 35.3709 25.3457 35.2781 25.3916" fill="#293666"/>
<path d="M35.1368 11.8707H34.248C34.227 11.6139 34.2723 11.356 34.3796 11.1213L34.248 10.991L33.8639 10.6108H33.3591C33.2803 10.5524 33.2157 10.4771 33.1701 10.3907C33.1245 10.3042 33.0991 10.2087 33.0958 10.1113L33.2275 9.98093C33.3591 9.98093 33.7322 10.1113 33.8639 10.1113C33.8639 9.86147 33.9956 9.36189 33.9956 9.23156C33.9885 9.26742 33.9885 9.3043 33.9956 9.34017V9.41619V9.48135C34.0932 9.48335 34.1891 9.5068 34.2764 9.55001C34.3637 9.59321 34.4402 9.65508 34.5003 9.73114C34.4235 9.79069 34.361 9.86641 34.3173 9.95281C34.2737 10.0392 34.25 10.1341 34.248 10.2307C34.5003 10.2307 34.5003 10.3502 34.632 10.6108C34.5003 10.991 35.0051 11.1104 35.1368 11.3711V11.8707ZM43.8056 14.9985C43.8388 15.0767 43.8832 15.1499 43.9373 15.2157C43.9643 15.2568 43.9976 15.2934 44.0361 15.3243C44.0855 15.3804 44.1407 15.4314 44.2007 15.4763L44.3214 15.5306C44.3592 15.5565 44.3996 15.5783 44.4421 15.5958H44.6176C44.6176 15.2157 44.475 15.1614 44.7713 14.7813H45.1334C45.0675 14.4446 44.9798 14.0753 44.881 13.6952C44.881 13.6952 44.881 13.6952 44.881 13.6301C44.7822 13.2608 44.6615 12.8915 44.5299 12.544C44.5285 12.5187 44.5285 12.4933 44.5299 12.468L44.3872 12.0987C44.3554 12.0064 44.3188 11.9158 44.2775 11.8272C44.2775 11.7078 44.1787 11.5883 44.1238 11.4688C44.069 11.3494 44.058 11.3059 44.0141 11.219C43.9702 11.1321 43.8934 10.9692 43.8385 10.8389L43.7398 10.6543C43.6374 10.4733 43.5386 10.2995 43.4435 10.133C42.079 7.80675 40.236 5.7902 38.0337 4.21402C37.7484 4.01853 37.4302 3.8339 37.101 3.63841L36.7718 3.45378L36.1024 3.09539C35.9708 3.01936 35.8391 2.96506 35.7074 2.8999L35.0819 2.60666L34.7418 2.44376C34.5881 2.38946 34.4345 2.31343 34.2919 2.26999L34.0504 2.18311H33.6335C33.5567 2.28085 33.5018 2.31343 33.4689 2.31343C33.3152 2.31343 33.1616 2.49806 33.019 2.49806C33.1616 2.86732 33.019 2.68269 33.1616 3.05195H32.5471C32.5913 3.40636 32.749 3.73747 32.997 3.99681C32.7007 4.18143 32.2508 3.99681 31.8009 3.99681C31.6583 3.61669 31.5047 3.05195 31.0657 3.05195C31.0657 3.24743 30.9121 3.43206 30.9121 3.61669C30.9121 3.80132 31.362 4.36606 31.5047 4.56155C30.9121 4.56155 30.3305 5.30007 29.5734 4.93081C29.8697 4.18144 27.9493 3.99681 27.6531 3.99681L27.3568 4.36606C27.0605 4.18143 25.5791 5.45211 25.2829 5.87567L25.7218 6.42955C26.9947 5.65846 26.9069 6.04944 27.5104 5.34351C27.8067 5.34351 28.3992 5.15888 28.2456 5.539C28.018 5.83061 27.8196 6.14341 27.6531 6.473C27.6531 6.65763 27.8067 6.85312 27.8067 7.03774C27.4876 7.18997 27.1859 7.37566 26.9069 7.59163C26.7642 7.59163 26.6106 7.407 26.468 7.407C26.468 7.22237 26.7642 6.85312 26.7642 6.65763C26.7642 6.46214 26.6765 6.50558 26.6765 6.32095C26.5338 6.32095 26.468 6.46214 26.3253 6.46214H25.9632C25.8974 6.89656 25.9632 6.82053 25.9632 7.00516C25.767 7.24595 25.5147 7.43601 25.228 7.55905C25.5243 7.18979 24.4818 7.55905 24.1307 7.55905L23.6808 8.12379H23.2418H22.8797H22.6932H22.2652C22.1448 8.12986 22.0261 8.15554 21.9141 8.19982C21.9141 8.38444 22.1994 8.57993 22.353 8.57993C22.3521 8.85431 22.2462 9.11815 22.0567 9.31844C21.7605 9.31844 21.7605 9.14468 21.4532 9.31844L20.8716 8.57993C20.718 8.57993 20.5644 8.76456 20.4108 8.76456C20.4108 9.14468 20.2681 9.69856 20.2681 10.0678L19.8292 10.6326V11.3819C19.9718 11.3819 20.1255 11.5666 20.2681 11.5666C20.6851 11.3928 21.2228 11.6969 21.6507 11.7403L21.7714 11.686C21.8647 11.3784 22.0094 11.0884 22.1994 10.8281C22.4957 10.8281 22.6383 11.0018 22.9456 11.0018L23.2638 10.6326L23.4503 10.4371C23.5313 10.3557 23.6237 10.2862 23.7247 10.2307H23.7905C23.8823 10.1822 23.9831 10.1526 24.0868 10.1438L24.833 11.0778C24.8168 11.1982 24.828 11.3207 24.8659 11.4362C24.8659 11.4362 24.4269 11.4362 24.5696 11.8164C24.5696 12.001 25.3158 12.3811 25.4584 12.5657C25.7157 12.2202 26.0141 11.9066 26.3473 11.6317V10.8715L26.6435 11.2516V12.001C26.9398 12.001 27.2471 12.3811 27.2471 12.7504C27.4226 12.1272 27.6927 11.534 28.0481 10.991C28.2017 10.991 28.3005 11.2408 28.4651 11.2408L28.6187 11.0778C28.7723 11.0778 28.9369 11.2408 29.0906 11.2408C29.1246 10.9743 29.1722 10.7097 29.2332 10.4479C29.716 10.4479 30.0452 10.7629 30.5171 10.7629C30.584 10.5055 30.6353 10.2444 30.6707 9.98093L30.9779 9.66598C30.6707 10.2959 32.0753 11.0778 32.4154 11.3928C32.0654 11.5233 31.6914 11.5788 31.3181 11.5557L30.9999 11.2408C30.6265 11.2659 30.2521 11.2103 29.9026 11.0778L29.4307 11.5557C29.1125 11.5557 28.9589 11.3928 28.6407 11.3928L28.0152 11.3059L28.3005 11.4362V12.5223C28.5968 12.5223 29.0357 12.8915 29.1893 12.8915C29.5309 12.7311 29.9107 12.6672 30.2866 12.7069L30.5829 13.0762C30.4403 13.2717 30.133 13.4563 29.9794 13.6518C29.6831 13.4563 29.6831 13.4563 29.3868 13.6518H29.0906C28.6516 13.4563 28.0591 13.4563 27.6201 13.2717H27.3239C27.0166 13.4563 25.9851 13.2717 25.5352 13.2717L25.3926 13.4563C25.0963 13.4563 24.2953 12.7069 24.0539 12.5223C24.0539 12.3377 24.2075 12.153 24.2075 11.9575C24.1089 11.9474 24.0126 11.9217 23.9222 11.8815C23.8177 11.8358 23.7066 11.8065 23.593 11.7946H23.5052C23.3516 11.61 23.2089 11.4145 22.9017 11.4145V11.1104C22.7371 11.2082 22.3859 11.4254 22.0348 11.5991C22.0348 11.5991 22.0348 11.6534 22.0348 11.6752H21.9251C21.7273 11.7816 21.5117 11.8515 21.2886 11.8815C20.1913 12.0661 18.7648 13.3803 17.7223 13.3803C16.625 14.6944 16.625 15.8022 16.625 17.7245C17.2285 18.4738 17.5248 19.788 18.26 20.7328C19.2416 20.5651 20.2383 20.4995 21.2337 20.5373V21.2107C21.6727 21.2107 21.9799 21.3953 22.4188 21.2107C22.4961 21.7037 22.4961 22.2055 22.4188 22.6986C22.5176 22.8289 22.6273 22.9484 22.7261 23.057L22.8688 23.1981L23.0772 23.4262L23.2528 23.6108L23.3516 23.7303L23.4942 23.9149C23.5277 23.9669 23.5571 24.0214 23.582 24.0778L23.6478 24.1973C23.6837 24.2669 23.7131 24.3396 23.7356 24.4145C23.7356 24.4145 23.7356 24.5014 23.7356 24.5557L23.8015 24.8381C23.7962 24.8886 23.7962 24.9396 23.8015 24.9901C23.804 25.1789 23.793 25.3676 23.7686 25.5549L23.4723 25.9241C23.4723 27.9768 25.4036 29.4864 26.446 30.7896C27.3348 30.7896 28.2237 30.4204 29.1125 30.4204C29.3594 29.7733 29.835 29.237 30.4512 28.9108V27.727C31.3401 27.727 32.0753 26.4237 32.3825 25.4897C32.2289 25.2942 31.9326 25.1096 31.779 24.925C31.779 24.5448 31.9326 23.9801 31.9326 23.6108C31.9501 23.5444 31.9798 23.4818 32.0204 23.4262C32.0168 23.401 32.0168 23.3754 32.0204 23.3502L32.1301 23.1981C32.1497 23.1644 32.1758 23.1349 32.2069 23.1113C32.2069 23.0461 32.3167 22.9809 32.3715 22.9158L32.4374 22.8397L32.7227 22.5682L32.7995 22.4922L33.0519 22.2641L33.1616 22.1555L33.403 21.9492L33.5128 21.8514L33.7871 21.6125L34.1492 21.3084L34.4126 21.0804L34.4784 21.0152L34.7308 20.7871L34.8625 20.6459C34.8625 20.6459 34.8625 20.5808 34.8625 20.559C34.8625 19.8097 34.8625 19.9943 35.3014 19.473H34.2699C34.1994 19.5508 34.1081 19.6073 34.0066 19.6359C33.9738 19.6405 33.9405 19.6405 33.9078 19.6359H33.6774H33.5566H33.2933H32.9092C32.6898 19.3535 32.4264 19.0277 32.0972 18.5499C31.9216 18.3109 31.9546 18.1046 31.79 17.8548C31.6254 17.605 31.1864 17.5072 30.9889 17.2249C30.7914 16.9425 30.9011 16.5515 30.8243 16.2583C30.6944 15.9755 30.5364 15.7063 30.3525 15.4546C30.0562 14.8682 29.4088 14.3143 29.4088 13.8038C29.8587 13.8038 30.3415 14.8899 30.6378 14.6835L31.351 15.7696L31.7132 16.8665L32.8105 17.8439L33.3043 19.006C33.4788 19.0028 33.6521 18.9773 33.82 18.93L33.9956 18.8431L34.2589 18.7345C34.3102 18.712 34.3582 18.6828 34.4016 18.6476C34.5084 18.5814 34.611 18.5089 34.7088 18.4304L34.8734 18.3109L35.1917 18.0503L35.6745 17.6484L35.7403 17.5941L36.0805 17.3552L36.2231 17.2683L36.5304 17.1163L36.6621 17.062C36.8074 17.0148 36.959 16.9891 37.112 16.9859L37.4082 16.2257C37.4082 16.0411 37.2546 15.8456 37.2546 15.6718H36.6621L36.3658 15.2917H35.2685C35.113 15.2787 34.9589 15.2533 34.8076 15.2157H34.6869C34.5279 15.1633 34.3766 15.0902 34.237 14.9985C34.1712 14.9985 34.1163 14.8899 34.0504 14.8356L33.9736 14.6944C33.8844 14.5809 33.8037 14.4612 33.7322 14.336C33.2933 14.336 33.1397 13.7821 32.997 13.402C33.0547 13.361 33.1236 13.3383 33.1945 13.3368C33.2631 13.3211 33.3344 13.3211 33.403 13.3368C33.4826 13.3637 33.5569 13.4042 33.6225 13.4563L33.831 13.6301L34.0395 13.8473V13.9124L34.1382 14.0319L34.3357 14.2817L34.7418 14.6944C35.3343 14.6944 36.2122 15.2483 36.8157 14.8682L37.112 15.2483C37.3964 15.1214 37.6478 14.9319 37.8472 14.6944H38.4397C38.5933 14.8682 39.0433 15.4438 39.3286 15.4438C39.3795 15.7952 39.5407 16.1219 39.7894 16.3778C39.8178 15.6859 39.7626 14.9931 39.6248 14.3143C40.0208 14.8498 40.2323 15.497 40.2284 16.1606C40.2284 16.1606 40.5137 16.5407 40.6673 16.5407C40.6673 17.1054 40.8209 18.224 41.4135 18.224C41.4076 18.3996 41.4651 18.5714 41.5757 18.7088C41.6864 18.8461 41.8428 18.9399 42.017 18.9734C42.0122 18.6968 42.1142 18.4287 42.3023 18.224C42.017 18.6042 42.4559 17.6593 42.4559 17.6593L42.1596 17.29V15.7804C42.3023 15.6067 42.7522 15.2265 42.8948 15.0419C42.825 14.9292 42.788 14.7995 42.788 14.6672C42.788 14.535 42.825 14.4053 42.8948 14.2925C43.139 14.3709 43.3883 14.4326 43.641 14.4772C43.6406 14.6102 43.6629 14.7424 43.7069 14.8682C43.7266 14.9127 43.7486 14.9562 43.7727 14.9985" fill="#293666"/>
<path d="M19.1698 4.74598H19.5429C20.1135 4.74598 20.4975 5.31073 21.2547 5.31073L21.6278 5.67998C22.0118 5.50622 22.1984 5.50622 22.3959 5.1261H23.7676C25.0953 3.81198 27.9374 4.1921 28.497 2.31323H29.2542C29.4517 2.1286 30.0223 1.37923 30.3515 1.37923C29.8467 1.31407 29.32 1.28149 28.8043 1.25977H28.3434C27.9483 1.25977 27.5533 1.25977 27.1583 1.25977C27.0156 1.25977 26.873 1.25977 26.7303 1.25977C26.2074 1.30473 25.6873 1.37724 25.1721 1.47698L24.9746 1.6616C24.5247 1.74849 24.0748 1.86795 23.6359 1.99828L23.4384 2.05258L23.186 2.13946L22.1764 2.50872L21.7485 2.68249C21.2986 2.88884 20.8487 3.09519 20.4207 3.34498C18.2806 4.52612 16.4122 6.13498 14.9341 8.06929L14.7695 8.51457V8.8621C16.4704 8.29736 17.6884 5.16954 19.2137 4.78942" fill="#293666"/>
<path d="M13.2438 20.5265C13.0486 20.4945 12.8597 20.4322 12.6842 20.3419L12.4867 20.1247C12.2462 19.6388 11.9275 19.195 11.543 18.8105C11.5974 20.6284 11.988 22.421 12.6952 24.0996C12.8817 23.7195 14.1985 22.9375 14.385 22.742C14.0119 22.3619 13.6279 21.656 13.2877 21.2433L13.2438 20.5265Z" fill="#293666"/>
<path d="M44.9244 18.6038V17.8436C44.781 17.7798 44.6418 17.7072 44.5074 17.6264L44.4087 17.5721L44.2002 17.4418L44.0905 17.3658C43.9917 17.2789 43.8929 17.2028 43.7832 17.0942C43.7861 17.2397 43.8222 17.3826 43.8887 17.5124C43.9552 17.6421 44.0504 17.7554 44.1673 17.8436V19.0383L44.4416 19.3098L45.111 19.9614L45.1768 20.8628C45.294 20.2609 45.3637 19.6509 45.3853 19.0383L44.9244 18.6038Z" fill="#293666"/>
<path d="M33.4239 2.26999C33.3252 2.0745 33.3142 2.26999 33.4239 2.26999V2.26999Z" fill="#293666"/>
<path d="M18.8956 5.10429C19.3867 5.5371 19.9916 5.8233 20.6403 5.92968C21.7024 4.24457 23.1834 2.85727 24.9418 1.90044C22.6963 2.50264 20.6253 3.61869 18.8956 5.15859V5.10429ZM32.1951 1.90044C33.9494 2.86767 35.4289 4.25723 36.4966 5.94054C37.4074 5.69075 37.989 5.38666 38.1426 5.04999C36.4265 3.56813 34.3929 2.49121 32.1951 1.90044ZM21.0902 6.00571C23.4809 6.45563 25.9101 6.67387 28.3435 6.65734V1.4443C25.5344 1.52033 22.9886 3.258 21.0902 6.03829V6.00571ZM28.7715 1.4443V6.68992C31.214 6.71244 33.6522 6.48313 36.0467 6.00571C34.1483 3.22542 31.6574 1.48775 28.7934 1.40086L28.7715 1.4443ZM14.6709 10.8278C14.9961 11.1402 15.3658 11.4036 15.7682 11.6097C16.4683 11.9775 17.2034 12.2759 17.9629 12.5003C18.4352 10.3178 19.2735 8.2291 20.4428 6.32066C19.7623 6.18218 19.1326 5.86308 18.6213 5.39752C16.9697 6.93221 15.6452 8.77855 14.7258 10.8278H14.6709ZM36.7929 6.32066C38.0185 8.33056 38.8835 10.5352 39.3496 12.837C40.1762 12.5938 40.9606 12.2276 41.676 11.7509C42.0126 11.5332 42.3033 11.2529 42.5319 10.9255C41.6102 8.80525 40.2495 6.89986 38.5376 5.33236C38.0762 5.83389 37.4649 6.17637 36.7929 6.3098V6.32066ZM18.2811 12.6197C21.5566 13.47 24.9246 13.9223 28.3106 13.9664V7.09176C25.7874 7.1199 23.2682 6.88694 20.794 6.39669C19.6063 8.31521 18.7566 10.4195 18.2811 12.6197ZM28.7495 13.9773C32.1384 14.1042 35.5286 13.7643 38.8229 12.9673C38.3698 10.6601 37.5 8.45265 36.2552 6.45099C33.7863 6.95142 31.2692 7.18088 28.7495 7.1352V13.9773ZM39.3387 13.2714C39.6364 14.8362 39.787 16.425 39.7886 18.0174C39.7878 18.9534 39.7366 19.8888 39.635 20.8194C40.8021 20.4418 41.9102 19.9044 42.9269 19.2229C43.2888 18.9675 43.6267 18.6804 43.9364 18.3649V18.0283C43.9414 15.7726 43.517 13.5362 42.6855 11.436C42.4459 11.7073 42.1731 11.9481 41.8735 12.1527C41.104 12.6514 40.2647 13.0356 39.3826 13.2931L39.3387 13.2714ZM13.1566 18.4192C13.6931 18.9775 14.3107 19.4533 14.9891 19.8311C15.7612 20.2677 16.5732 20.6313 17.4142 20.9172C17.3034 19.9617 17.2485 19.0008 17.2496 18.0391C17.2499 16.3321 17.4226 14.6294 17.7654 12.9564C16.9749 12.7167 16.2104 12.4002 15.4829 12.0116C15.0861 11.8184 14.7171 11.5737 14.3856 11.2839C13.4992 13.4317 13.0445 15.7299 13.0469 18.05C13.0469 18.1695 13.0469 18.2998 13.0469 18.4192H13.1566ZM28.6837 14.466V22.4593C32.2047 22.4722 35.7089 21.9784 39.0863 20.9932C39.2064 20.013 39.2651 19.0265 39.2619 18.0391C39.2616 16.4909 39.1183 14.9459 38.8339 13.4234C35.5151 14.2556 32.0945 14.6212 28.6727 14.5095L28.6837 14.466ZM17.8093 21.1126C21.1913 22.0857 24.7011 22.5542 28.2228 22.5028V14.4334C24.8656 14.3719 21.5279 13.9125 18.2811 13.065C17.7505 15.6927 17.6467 18.3874 17.9739 21.0475L17.8093 21.1126ZM15.5817 26.9664C16.9882 27.859 18.4942 28.5879 20.0697 29.1385C18.7248 26.7283 17.8605 24.0847 17.5239 21.3516C16.5844 21.0436 15.6768 20.6472 14.8136 20.1678C14.225 19.8572 13.6761 19.478 13.1786 19.0383C13.3274 21.8332 14.1515 24.552 15.5817 26.9664ZM39.613 21.319C39.2738 24.2055 38.3401 26.9925 36.8697 29.5078C38.4568 28.9659 39.9571 28.2015 41.3248 27.238C42.8654 24.7598 43.7626 21.9429 43.9364 19.0383C43.7065 19.2439 43.4647 19.4361 43.2122 19.6139C42.1021 20.3596 40.8902 20.9448 39.613 21.3516V21.319ZM20.7062 29.3992C23.1846 30.2212 25.7742 30.6679 28.3874 30.7242V22.9263C24.8814 22.9699 21.3878 22.5052 18.0177 21.5471C18.3804 24.3193 19.3061 26.9903 20.7391 29.3992H20.7062ZM28.8373 30.735C29.4847 30.735 30.1322 30.735 30.7796 30.6807C32.6403 30.5717 34.4817 30.2473 36.2662 29.7142C37.8118 27.2037 38.7889 24.3914 39.1302 21.471C35.7726 22.4425 32.2916 22.9326 28.7934 22.9263L28.8373 30.735ZM36.5186 30.0943C35.4357 31.8045 33.9235 33.2077 32.1293 34.167C35.6173 33.2387 38.6632 31.1238 40.7323 28.1937C39.4075 28.9951 37.9888 29.6334 36.5076 30.0943H36.5186ZM16.0865 27.8244C18.1648 30.9464 21.3269 33.2066 24.9748 34.1778C23.1054 33.1304 21.5523 31.6083 20.4757 29.7685C18.9465 29.2779 17.475 28.6262 16.0865 27.8244ZM28.7605 31.1695V34.5905C31.4599 34.5036 33.9179 32.8854 35.7834 30.2463C34.134 30.6944 32.4426 30.9746 30.7357 31.0826C30.0773 31.0826 29.4189 31.0826 28.7605 31.0826V31.1695ZM21.0793 29.8988C22.9886 32.6899 25.5454 34.4276 28.3545 34.5145V31.1695C25.8857 31.1106 23.4372 30.7122 21.0793 29.9857V29.8988ZM28.552 35.0575C25.8424 35.0162 23.1906 34.2762 20.8583 32.9106C18.5259 31.545 16.5938 29.601 15.2525 27.2705C14.4804 26.7792 13.7468 26.231 13.0579 25.6306C13.0169 25.5882 12.9941 25.5318 12.9941 25.4731C12.9941 25.4145 13.0169 25.3581 13.0579 25.3157C13.0989 25.2759 13.154 25.2536 13.2115 25.2536C13.2689 25.2536 13.3241 25.2759 13.3651 25.3157C13.804 25.7066 14.2649 26.065 14.7368 26.4017C13.4675 23.9777 12.7697 21.3005 12.6957 18.5713C12.2859 18.119 11.9765 17.5866 11.7875 17.0085C11.5984 16.4305 11.534 15.8196 11.5984 15.2154C11.6012 15.1868 11.6096 15.1591 11.6232 15.1337C11.6369 15.1084 11.6555 15.086 11.6779 15.0678C11.7004 15.0496 11.7262 15.036 11.754 15.0278C11.7818 15.0196 11.811 15.0169 11.8398 15.0199C11.8687 15.0226 11.8967 15.031 11.9223 15.0445C11.9479 15.058 11.9706 15.0764 11.9889 15.0986C12.0073 15.1208 12.021 15.1464 12.0294 15.1739C12.0377 15.2014 12.0404 15.2303 12.0373 15.2588C11.9474 16.1796 12.1968 17.1015 12.7396 17.8545C12.7544 15.4727 13.2467 13.1175 14.1881 10.9255C13.8625 10.5486 13.6939 10.0633 13.7162 9.56795C13.7243 9.51038 13.7532 9.45767 13.7976 9.41969C13.842 9.38171 13.8989 9.36106 13.9577 9.3616C14.0168 9.36712 14.0716 9.39506 14.1104 9.43959C14.1493 9.48411 14.1692 9.54178 14.1661 9.60053C14.1469 9.90028 14.2279 10.198 14.3966 10.4476C15.3548 8.39271 16.7163 6.54684 18.4018 5.0174C18.3867 4.83162 18.4201 4.64512 18.4989 4.47583C18.5777 4.30655 18.6992 4.16019 18.8517 4.05082C18.8969 4.02422 18.95 4.01373 19.002 4.02108C19.0541 4.02844 19.102 4.0532 19.1379 4.09125C19.1738 4.1293 19.1955 4.17836 19.1993 4.23027C19.2031 4.28218 19.1889 4.33383 19.159 4.37663C21.8217 2.20087 25.1649 1.00709 28.6179 0.999023C31.9484 1.00859 35.1792 2.12544 37.7915 4.17028C37.7764 4.12441 37.7764 4.07498 37.7915 4.0291C37.8343 3.9886 37.8913 3.966 37.9506 3.966C38.0098 3.966 38.0668 3.9886 38.1097 4.0291C38.2436 4.13325 38.3553 4.26275 38.4382 4.41006C38.5211 4.55736 38.5736 4.71951 38.5925 4.88708C40.3331 6.43479 41.7338 8.32008 42.7074 10.4259C42.7735 10.1583 42.7735 9.87897 42.7074 9.61139C42.6987 9.55378 42.7135 9.4951 42.7485 9.44826C42.7834 9.40141 42.8358 9.37024 42.894 9.3616C42.9522 9.35296 43.0115 9.36755 43.0588 9.40218C43.1061 9.4368 43.1376 9.48862 43.1464 9.54623C43.2372 10.0408 43.1519 10.5513 42.905 10.9907C43.8228 13.1507 44.3038 15.4679 44.3205 17.8111C44.577 17.4506 44.7568 17.0425 44.8492 16.6112C44.9417 16.18 44.9447 15.7347 44.8582 15.3023C44.8518 15.2737 44.8513 15.2442 44.8568 15.2154C44.8622 15.1867 44.8735 15.1593 44.8899 15.1349C44.9063 15.1106 44.9275 15.0898 44.9522 15.0738C44.9769 15.0577 45.0047 15.0468 45.0338 15.0416C45.0905 15.0321 45.1486 15.045 45.1958 15.0775C45.243 15.11 45.2755 15.1595 45.2862 15.2154C45.4058 15.8071 45.3806 16.4185 45.2126 16.9986C45.0446 17.5787 44.7387 18.1105 44.3205 18.5496C44.2507 21.3275 43.5334 24.0519 42.2246 26.5103C42.6819 26.1402 43.1144 25.7411 43.5195 25.3157C43.5617 25.284 43.6136 25.2678 43.6665 25.2696C43.7193 25.2714 43.77 25.2911 43.8099 25.3255C43.8498 25.3599 43.8765 25.4069 43.8856 25.4585C43.8946 25.5101 43.8855 25.5632 43.8596 25.6089C43.2155 26.3244 42.4984 26.9723 41.7199 27.5421C40.3568 29.804 38.4307 31.6824 36.1255 32.9981C33.8203 34.3138 31.2128 35.0228 28.552 35.0575Z" fill="#293666"/>
<path d="M117.458 15.2698C116.417 15.2371 115.384 15.4728 114.463 15.954C113.611 16.4319 112.924 17.1504 112.487 18.0175C112.069 17.1539 111.405 16.4295 110.578 15.9323C109.683 15.4663 108.681 15.238 107.67 15.2698C106.866 15.2539 106.07 15.4368 105.355 15.8019C104.637 16.1916 104.018 16.7375 103.544 17.3984V15.5304H100.977V31.4302H103.72V23.2957C103.621 21.8718 103.929 20.4491 104.609 19.1904C104.912 18.7525 105.326 18.4007 105.809 18.1702C106.292 17.9396 106.828 17.8383 107.363 17.8763C107.879 17.8391 108.396 17.9418 108.858 18.1733C109.32 18.4048 109.71 18.7564 109.986 19.1904C110.639 20.4959 110.927 21.9511 110.82 23.4043V31.4302H113.629V23.111C113.513 21.7157 113.794 20.3161 114.441 19.0709C114.762 18.7014 115.16 18.4037 115.607 18.1977C116.053 17.9916 116.539 17.8819 117.032 17.8757C117.525 17.8695 118.013 17.9671 118.465 18.1619C118.917 18.3567 119.322 18.6444 119.653 19.0058C120.311 19.9259 120.632 21.0408 120.564 22.1662V31.4302H123.461V21.71C123.55 19.9989 122.964 18.3204 121.826 17.0292C121.266 16.4397 120.583 15.9772 119.826 15.6735C119.068 15.3698 118.253 15.2321 117.436 15.2698" fill="#293666"/>
<path d="M93.9958 27.4227C93.5238 27.939 92.9457 28.3494 92.3004 28.6267C91.6551 28.9039 90.9573 29.0414 90.2539 29.03C89.5486 29.0396 88.8491 28.9025 88.2007 28.6275C87.5523 28.3524 86.9696 27.9457 86.4901 27.4336C85.5082 26.3354 84.9661 24.9196 84.9661 23.4532C84.9661 21.9867 85.5082 20.571 86.4901 19.4728C86.9674 18.958 87.5498 18.5494 88.1986 18.2741C88.8475 17.9989 89.5481 17.8633 90.2539 17.8763C90.9546 17.8629 91.6501 17.9963 92.295 18.2677C92.9399 18.5391 93.5195 18.9424 93.9958 19.4511C94.972 20.5541 95.5101 21.9706 95.5101 23.4369C95.5101 24.9032 94.972 26.3197 93.9958 27.4227ZM96.0478 17.4745C95.2879 16.7026 94.3804 16.088 93.3782 15.6666C92.3759 15.2452 91.299 15.0254 90.2101 15.02H90.0894C89.0012 15.0237 87.9267 15.2608 86.94 15.7151C85.9074 16.1955 84.9793 16.8706 84.2077 17.7026C83.4562 18.4578 82.8665 19.3554 82.474 20.3417C81.6623 22.372 81.6623 24.6321 82.474 26.6625C82.881 27.6747 83.4807 28.6002 84.2406 29.3884C84.9948 30.178 85.9016 30.8095 86.9071 31.2456C87.9264 31.6634 89.0191 31.8775 90.1223 31.8755C91.2576 31.8829 92.3809 31.6458 93.4142 31.1804C94.4684 30.7051 95.4132 30.0213 96.1905 29.1712C96.9086 28.3801 97.4706 27.4629 97.8474 26.467C98.2339 25.4532 98.4345 24.3793 98.44 23.2957C98.4376 22.2253 98.2213 21.166 97.8035 20.1788C97.3736 19.172 96.7556 18.2545 95.982 17.4745" fill="#293666"/>
<path d="M66.9472 27.4552C66.4492 27.9643 65.8521 28.3682 65.192 28.6426C64.5319 28.917 63.8225 29.0561 63.1066 29.0517C62.3891 29.0578 61.6786 28.9128 61.0221 28.6264C60.3656 28.3399 59.7782 27.9184 59.2989 27.3901C58.7684 26.8644 58.3495 26.2391 58.0668 25.5509C57.7842 24.8626 57.6434 24.1254 57.6529 23.3825C57.6492 22.6683 57.7911 21.9606 58.0702 21.3019C58.3492 20.6431 58.7596 20.0469 59.2769 19.5488C59.7593 19.0404 60.3426 18.6361 60.9903 18.3614C61.638 18.0866 62.3361 17.9474 63.0407 17.9523H63.1066C63.8284 17.9504 64.543 18.0939 65.207 18.3739C65.8711 18.654 66.4706 19.0648 66.9691 19.5814C67.4945 20.1175 67.9068 20.7519 68.1818 21.4474C68.4569 22.1429 68.5893 22.8857 68.5712 23.6323C68.5848 24.3544 68.4475 25.0715 68.1681 25.7387C67.8886 26.4059 67.473 27.0087 66.9472 27.5095V27.4552ZM63.1505 15.2372C62.166 15.2429 61.1924 15.4423 60.2865 15.8236C59.3526 16.2089 58.503 16.7695 57.7846 17.4744V15.5304H54.8438V46.7977H57.7846V29.497C58.5108 30.2451 59.3799 30.8431 60.3413 31.2564C61.2321 31.6249 62.1852 31.8238 63.1505 31.8429H63.3699C64.4968 31.8663 65.6167 31.663 66.6619 31.2455C67.6653 30.8113 68.5688 30.1794 69.3174 29.3884C70.0259 28.6064 70.5804 27.7003 70.9524 26.7167C71.3482 25.7055 71.5491 24.6299 71.545 23.5455C71.5766 22.4406 71.3805 21.3409 70.9685 20.3136C70.5565 19.2862 69.9372 18.3528 69.1486 17.5702C68.3599 16.7876 67.4184 16.1723 66.3814 15.7618C65.3445 15.3514 64.234 15.1544 63.1175 15.1829" fill="#293666"/>
<path d="M76.9326 17.3659V15.5305H74.2441V31.4302H77.1301V22.5789C77.033 21.4551 77.3273 20.3323 77.9641 19.3968C78.3303 19.0387 78.7662 18.7578 79.2452 18.5712C79.7243 18.3845 80.2366 18.2959 80.7513 18.3108V15.2698C80.0132 15.261 79.2848 15.4366 78.6334 15.7803C77.9629 16.1594 77.3975 16.6966 76.9874 17.3442" fill="#293666"/>
<path d="M253.932 27.4551C253.434 27.9641 252.836 28.368 252.176 28.6424C251.516 28.9168 250.807 29.056 250.091 29.0516C249.373 29.0584 248.663 28.9137 248.006 28.6272C247.349 28.3407 246.762 27.9189 246.283 27.3899C245.759 26.8594 245.348 26.2307 245.073 25.5407C244.798 24.8506 244.664 24.1132 244.681 23.3716C244.677 22.6573 244.819 21.9496 245.098 21.2909C245.377 20.6321 245.788 20.0359 246.305 19.5378C246.782 19.0375 247.357 18.6388 247.994 18.3662C248.632 18.0935 249.319 17.9527 250.014 17.9522H250.091C250.811 17.9492 251.525 18.0922 252.187 18.3724C252.849 18.6525 253.447 19.0639 253.943 19.5812C254.472 20.1151 254.888 20.7488 255.165 21.4446C255.442 22.1405 255.575 22.8845 255.556 23.6322C255.567 24.3539 255.428 25.0703 255.149 25.7371C254.87 26.4039 254.455 27.007 253.932 27.5094V27.4551ZM256.126 17.6264C255.34 16.8392 254.398 16.2208 253.36 15.8098C252.322 15.3987 251.209 15.2037 250.091 15.2371C249.106 15.2428 248.133 15.4421 247.227 15.8235C246.296 16.2274 245.454 16.8065 244.747 17.5286V15.5303H241.828V46.7976H244.714V29.4969C245.446 30.2431 246.318 30.8407 247.282 31.2563C248.174 31.6204 249.126 31.8192 250.091 31.8427H250.31C251.437 31.8661 252.557 31.6629 253.602 31.2454C254.604 30.8134 255.504 30.1811 256.247 29.3883C256.994 28.6192 257.58 27.7111 257.97 26.7166C258.374 25.7075 258.579 24.6309 258.573 23.5453C258.606 22.441 258.411 21.3417 257.999 20.3147C257.588 19.2876 256.969 18.3544 256.181 17.5721" fill="#293666"/>
<path d="M235.616 22.8178C235.638 23.7251 235.591 24.6327 235.474 25.5329C235.403 26.0366 235.247 26.525 235.013 26.9773C234.692 27.6009 234.201 28.1236 233.597 28.487C232.979 28.8453 232.273 29.0293 231.556 29.0191C231.024 29.052 230.492 28.9507 230.01 28.7247C229.529 28.4986 229.113 28.1553 228.802 27.7267C228.107 26.5598 227.785 25.2117 227.88 23.8604V15.5195H224.983V24.6858C224.867 26.5681 225.461 28.426 226.651 29.8988C227.249 30.5332 227.981 31.0294 228.794 31.3522C229.608 31.6751 230.483 31.8166 231.359 31.7668C232.19 31.7758 233.013 31.5936 233.762 31.2347C234.522 30.8493 235.186 30.3 235.704 29.6273V31.4084H238.48V15.5195H235.616V22.8178Z" fill="#293666"/>
<path d="M218.343 27.4227C217.871 27.939 217.293 28.3494 216.648 28.6267C216.003 28.9039 215.305 29.0414 214.602 29.03C213.896 29.0403 213.196 28.9035 212.548 28.6284C211.899 28.3533 211.317 27.9462 210.838 27.4336C209.856 26.3354 209.314 24.9196 209.314 23.4532C209.314 21.9867 209.856 20.571 210.838 19.4728C211.314 18.9569 211.896 18.5475 212.545 18.2722C213.195 17.9969 213.896 17.8619 214.602 17.8763C215.308 17.8597 216.009 17.9915 216.66 18.2629C217.31 18.5344 217.895 18.9393 218.376 19.4511C219.353 20.5541 219.891 21.9706 219.891 23.4369C219.891 24.9032 219.353 26.3197 218.376 27.4227H218.343ZM220.428 17.4745C219.668 16.7026 218.761 16.088 217.759 15.6666C216.756 15.2452 215.68 15.0254 214.591 15.02H214.47C213.378 15.0249 212.301 15.2619 211.31 15.7151C210.278 16.1979 209.351 16.8727 208.577 17.7026C207.841 18.4612 207.266 19.3587 206.887 20.3417C206.301 21.8658 206.16 23.5226 206.48 25.1224C206.8 26.7223 207.569 28.2007 208.698 29.3884C209.454 30.1808 210.365 30.8126 211.375 31.2456C212.394 31.6645 213.487 31.8787 214.591 31.8755C215.726 31.8829 216.849 31.6458 217.883 31.1804C219.913 30.2389 221.489 28.5465 222.272 26.467C222.664 25.4547 222.865 24.3798 222.864 23.2957C222.867 22.2248 222.651 21.1644 222.228 20.1788C221.805 19.1708 221.19 18.2527 220.417 17.4745" fill="#293666"/>
<path d="M190.482 27.3899C190 27.918 189.411 28.3392 188.753 28.6256C188.094 28.912 187.382 29.0572 186.663 29.0516C185.208 29.0516 183.813 28.4795 182.784 27.4611C181.755 26.4427 181.177 25.0615 181.177 23.6213C181.159 22.8747 181.291 22.1319 181.566 21.4364C181.841 20.7409 182.254 20.1065 182.779 19.5704C183.277 19.0533 183.877 18.6421 184.541 18.362C185.205 18.0819 185.92 17.9388 186.642 17.9413H186.707C187.415 17.9426 188.115 18.089 188.763 18.3712C189.411 18.6535 189.992 19.0655 190.471 19.5812C190.981 20.0772 191.387 20.6687 191.664 21.3213C191.941 21.9739 192.084 22.6746 192.084 23.3824C192.101 24.124 191.968 24.8615 191.693 25.5515C191.418 26.2416 191.006 26.8703 190.482 27.4008V27.3899ZM191.964 17.4852C191.253 16.7576 190.402 16.1779 189.462 15.7801C188.556 15.3987 187.582 15.1993 186.598 15.1936C185.481 15.1652 184.37 15.3622 183.332 15.7725C182.295 16.1828 181.352 16.798 180.563 17.5804C179.773 18.3628 179.153 19.2961 178.74 20.3235C178.327 21.3509 178.129 22.4508 178.159 23.5562C178.151 25.7267 178.983 27.8178 180.486 29.3991C181.232 30.1925 182.136 30.8248 183.141 31.2563C184.188 31.6689 185.307 31.872 186.433 31.8536H186.663C187.667 31.841 188.657 31.6266 189.574 31.2233C190.49 30.82 191.315 30.2363 191.996 29.5077V46.7976H194.915V15.5303H191.996L191.964 17.4852Z" fill="#293666"/>
<path d="M201.304 17.366V15.5306H198.594V31.4303H201.535V22.579C201.441 21.4539 201.739 20.3309 202.379 19.3969C202.744 19.0401 203.179 18.76 203.656 18.5734C204.133 18.3867 204.643 18.2975 205.156 18.3109V15.2699C204.39 15.2547 203.633 15.4382 202.961 15.8021C202.295 16.1871 201.731 16.7231 201.315 17.366" fill="#293666"/>
<path d="M152.277 15.27C151.419 15.2524 150.569 15.423 149.786 15.7696C149.005 16.1382 148.316 16.6721 147.767 17.3335V15.5307H145.023V31.4304H147.909V24.1973C147.783 22.5563 148.122 20.9129 148.886 19.4513C149.256 19.0207 149.713 18.671 150.227 18.4246C150.741 18.1782 151.301 18.0404 151.872 18.0199C152.443 17.9995 153.011 18.0969 153.542 18.3059C154.073 18.515 154.554 18.8311 154.954 19.2341C155.67 20.3533 156.005 21.6704 155.909 22.9918V31.4304H158.806V22.3619C158.935 20.4612 158.331 18.5828 157.116 17.1054C156.492 16.4709 155.736 15.9781 154.9 15.6612C154.065 15.3443 153.17 15.2108 152.277 15.27Z" fill="#293666"/>
<path d="M166.048 10.3828H163.173V15.5307H160.891V18.1263H163.173V31.4196H166.048V18.1263H168.32V15.5307H166.048V10.3828Z" fill="#293666"/>
<path d="M138.032 27.4227C137.56 27.9395 136.982 28.3504 136.337 28.6276C135.692 28.9049 134.994 29.0421 134.29 29.03C133.584 29.0417 132.884 28.9055 132.236 28.6303C131.587 28.3552 131.004 27.9473 130.526 27.4336C129.538 26.3386 128.991 24.9216 128.991 23.4532C128.991 21.9847 129.538 20.5677 130.526 19.4728C131.003 18.9569 131.585 18.5475 132.234 18.2722C132.883 17.9969 133.584 17.8619 134.29 17.8763C134.994 17.8599 135.694 17.9917 136.343 18.2632C136.992 18.5347 137.575 18.9396 138.054 19.4511C139.03 20.5541 139.568 21.9706 139.568 23.4369C139.568 24.9032 139.03 26.3197 138.054 27.4227H138.032ZM140.084 17.4745C139.324 16.7026 138.416 16.088 137.414 15.6666C136.412 15.2452 135.335 15.0254 134.246 15.02H134.125C133.034 15.0225 131.955 15.2596 130.965 15.7151C129.934 16.1979 129.006 16.8727 128.233 17.7026C127.493 18.4607 126.915 19.3582 126.532 20.3417C126.144 21.3468 125.95 22.4152 125.961 23.4912C125.961 24.5794 126.178 25.6569 126.598 26.6625C127.001 27.6742 127.597 28.5997 128.354 29.3884C129.11 30.1808 130.021 30.8126 131.031 31.2456C132.05 31.6645 133.143 31.8787 134.246 31.8755C135.382 31.8854 136.506 31.6481 137.538 31.1804C138.588 30.7082 139.526 30.0238 140.292 29.1712C141.014 28.383 141.577 27.465 141.949 26.467C142.341 25.4547 142.542 24.3798 142.542 23.2957C142.54 22.2253 142.323 21.166 141.905 20.1788C141.476 19.172 140.858 18.2545 140.084 17.4745Z" fill="#293666"/>
<path d="M238.832 35.894H198.133V37.5014H238.832V35.894Z" fill="#E8EAEA"/>
<path d="M64.0938 43.4965C63.952 43.6047 63.7791 43.6656 63.6 43.6702H62.8977V42.1063H63.6C63.7791 42.111 63.952 42.1718 64.0938 42.2801C64.1711 42.3582 64.2298 42.4523 64.2659 42.5556C64.3019 42.6588 64.3144 42.7688 64.3023 42.8774C64.3145 42.9877 64.3022 43.0993 64.2661 43.2044C64.2301 43.3094 64.1713 43.4054 64.0938 43.4856V43.4965ZM63.6 41.1614H61.9102V46.7872H62.8977V44.6151H63.622C63.8546 44.6337 64.0887 44.6048 64.3096 44.5301C64.5305 44.4553 64.7334 44.3364 64.9058 44.1807C65.2142 43.8178 65.3677 43.3504 65.3338 42.8774C65.3576 42.6375 65.3276 42.3954 65.246 42.1682C65.1645 41.9411 65.0333 41.7345 64.8619 41.5633C64.4978 41.2949 64.054 41.1535 63.6 41.1614Z" fill="#293666"/>
<path d="M123.327 44.3431H125.379V43.4309H123.327V42.1059H125.522V41.1719H122.273V46.7976H125.598V45.8636H123.327V44.3431Z" fill="#293666"/>
<path d="M119.717 44.7884C119.741 45.1224 119.7 45.4579 119.596 45.7767C119.554 45.856 119.488 45.921 119.408 45.9635C119.328 46.006 119.237 46.0241 119.146 46.0156C119.061 46.0184 118.976 45.9999 118.899 45.962C118.823 45.9241 118.757 45.8679 118.708 45.7984C118.588 45.6026 118.535 45.3746 118.554 45.1468V45.0382H117.555V45.1034C117.522 45.5844 117.671 46.0605 117.972 46.4392C118.131 46.5965 118.322 46.7186 118.532 46.7972C118.742 46.8759 118.966 46.9093 119.19 46.8953C119.412 46.9109 119.634 46.8758 119.839 46.793C120.045 46.7101 120.228 46.5817 120.375 46.4175C120.661 45.9953 120.796 45.4908 120.76 44.9839V41.1719H119.717V44.7884Z" fill="#293666"/>
<path d="M79.248 44.7884C79.2718 45.1224 79.2308 45.4579 79.1273 45.7767C79.0863 45.8551 79.0227 45.9197 78.9446 45.9622C78.8664 46.0048 78.7773 46.0234 78.6884 46.0156C78.601 46.0202 78.5138 46.0027 78.4351 45.9647C78.3563 45.9267 78.2887 45.8695 78.2385 45.7984C78.1193 45.6026 78.0655 45.3746 78.0849 45.1468V45.0382H77.0863V45.1034C77.0624 45.5886 77.2229 46.0652 77.5362 46.4392C77.6949 46.5965 77.8855 46.7186 78.0956 46.7972C78.3056 46.8759 78.5301 46.9093 78.7543 46.8953C78.9756 46.9109 79.1975 46.8758 79.403 46.793C79.6085 46.7101 79.792 46.5817 79.9394 46.4175C80.2252 45.9953 80.3603 45.4908 80.3234 44.9839V41.1719H79.2261L79.248 44.7884Z" fill="#293666"/>
<path d="M130.197 44.2676H128.441V45.2993H130.197V44.2676Z" fill="#293666"/>
<path d="M135.422 43.4965C135.282 43.6083 135.108 43.6696 134.928 43.6702H134.226V42.1063H134.928C135.107 42.111 135.28 42.1718 135.422 42.2801C135.499 42.3582 135.558 42.4523 135.594 42.5556C135.63 42.6588 135.643 42.7688 135.63 42.8774C135.643 42.9877 135.63 43.0993 135.594 43.2044C135.558 43.3094 135.499 43.4054 135.422 43.4856V43.4965ZM134.928 41.1614H133.238V46.7872H134.226V44.6151H134.961C135.192 44.6329 135.424 44.6035 135.643 44.5288C135.862 44.454 136.063 44.3355 136.234 44.1807C136.391 44.003 136.51 43.7963 136.586 43.5726C136.661 43.3489 136.691 43.1126 136.673 42.8774C136.694 42.6377 136.662 42.3964 136.581 42.1697C136.5 41.943 136.37 41.7362 136.201 41.5633C135.833 41.2948 135.386 41.1536 134.928 41.1614Z" fill="#293666"/>
<path d="M90.2659 41.1719H89.0918L87.4897 43.6046V41.1719H86.4473V46.7976H87.4897V43.887L89.2235 46.7976H90.4415L88.5431 43.6915L90.2659 41.1719Z" fill="#293666"/>
<path d="M74.7271 45.5164C74.6401 45.6823 74.5072 45.8204 74.3441 45.9146C74.1809 46.0088 73.9941 46.0552 73.8054 46.0486C73.6152 46.0547 73.4271 46.0082 73.2623 45.9141C73.0975 45.8201 72.9625 45.6823 72.8726 45.5164C72.6461 45.0498 72.5405 44.5347 72.5654 44.0177C72.5295 43.4881 72.6395 42.9589 72.8836 42.4863C72.9707 42.3204 73.1035 42.1824 73.2666 42.0882C73.4298 41.994 73.6166 41.9475 73.8054 41.9542C73.9937 41.9501 74.1794 41.9976 74.3421 42.0915C74.5048 42.1854 74.6381 42.3221 74.7271 42.4863C74.9662 42.9606 75.0759 43.4885 75.0453 44.0177C75.0767 44.5539 74.9671 45.089 74.7271 45.5707V45.5164ZM73.8054 41.0853C73.4726 41.0639 73.1395 41.1217 72.834 41.254C72.5285 41.3862 72.2595 41.5891 72.0496 41.8456C71.6035 42.4521 71.3826 43.1925 71.4242 43.9416C71.3776 44.7133 71.594 45.4782 72.0387 46.1137C72.2424 46.3702 72.5049 46.5749 72.8045 46.7109C73.1041 46.8469 73.4322 46.9102 73.7615 46.8957C74.0893 46.9112 74.4161 46.8482 74.7141 46.7121C75.0121 46.5759 75.2725 46.3707 75.4733 46.1137C75.9266 45.4818 76.1474 44.7152 76.0988 43.9416C76.153 43.1977 75.9478 42.4578 75.5172 41.8456C75.3128 41.5933 75.0515 41.3921 74.7541 41.2581C74.4568 41.1242 74.1318 41.0613 73.8054 41.0745" fill="#293666"/>
<path d="M91.0996 42.0842H92.5371V46.7976H93.5905V42.0842H95.028V41.1719H91.0996V42.0842Z" fill="#293666"/>
<path d="M82.8691 44.3431H84.9101V43.4309H82.8691V42.1059H85.0528V41.1719H81.8047V46.7976H85.1296V45.8636H82.8691V44.3431Z" fill="#293666"/>
<path d="M103.784 45.5704L102.49 41.1719H101.359L103.137 46.7976H104.311L106.111 41.1719H105.046L103.784 45.5704Z" fill="#293666"/>
<path d="M108.724 44.6689H108.011L108.724 42.3882V42.2796L109.393 44.6689H108.724ZM108.724 41.1719H108.153L106.387 46.7976H107.363L107.747 45.5921H109.69L110.041 46.7976H111.138L109.36 41.1719H108.724Z" fill="#293666"/>
<path d="M69.0205 43.4422C68.8415 43.5577 68.6304 43.6146 68.417 43.6051H67.6598V42.0412H68.4718C68.6896 42.0375 68.9035 42.0979 69.0863 42.2149C69.1612 42.3008 69.2174 42.4011 69.2514 42.5095C69.2854 42.6179 69.2965 42.732 69.2839 42.8448C69.2967 42.9535 69.2846 43.0636 69.2485 43.1671C69.2124 43.2705 69.1533 43.3645 69.0754 43.4422H69.0205ZM70.2934 45.8532L70.1946 45.0386C70.1919 44.7604 70.1081 44.4889 69.9532 44.2567C69.8021 44.0935 69.5945 43.9927 69.3716 43.9743C69.6606 43.9134 69.9177 43.7514 70.0959 43.5182C70.2659 43.2369 70.3462 42.9114 70.3263 42.5842C70.3445 42.3847 70.3175 42.1836 70.2473 41.9958C70.177 41.8079 70.0653 41.6379 69.9203 41.4981C69.5538 41.2395 69.1072 41.1165 68.6584 41.1506H66.5625V46.7763H67.6598V44.5282H68.5596C68.7319 44.5082 68.9059 44.5465 69.0534 44.6368C69.1541 44.8276 69.2032 45.0408 69.1961 45.2559L69.2619 46.1138C69.2619 46.2876 69.2619 46.4288 69.2619 46.5265C69.2829 46.6195 69.3123 46.7103 69.3497 46.7981H70.447C70.3816 46.6774 70.3301 46.5499 70.2934 46.4179C70.2529 46.2316 70.2236 46.043 70.2056 45.8532" fill="#293666"/>
<path d="M115.514 45.6898L113.671 41.1719H112.156V46.7976H113.1V42.1385L115.009 46.7976H116.458V41.1719H115.514V45.6898Z" fill="#293666"/>
<path d="M99.1312 45.5164C99.0441 45.6823 98.9113 45.8204 98.7481 45.9146C98.585 46.0088 98.3982 46.0552 98.2094 46.0486C98.0207 46.0552 97.8339 46.0088 97.6707 45.9146C97.5075 45.8204 97.3747 45.6823 97.2877 45.5164C97.0422 45.0365 96.9323 44.5 96.9694 43.9634C96.9389 43.4342 97.0486 42.9063 97.2877 42.432C97.3747 42.2661 97.5075 42.1281 97.6707 42.0339C97.8339 41.9397 98.0207 41.8932 98.2094 41.8999C98.3979 41.8945 98.5842 41.9415 98.7471 42.0356C98.9101 42.1296 99.0431 42.267 99.1312 42.432C99.3912 42.9193 99.5126 43.4674 99.4823 44.0177C99.5137 44.5539 99.404 45.089 99.1641 45.5707L99.1312 45.5164ZM98.2423 41.1396C97.9159 41.1264 97.5909 41.1893 97.2936 41.3233C96.9962 41.4572 96.7349 41.6585 96.5305 41.9107C96.0844 42.5173 95.8635 43.2577 95.905 44.0068C95.8564 44.7803 96.0772 45.547 96.5305 46.1789C96.7313 46.4359 96.9917 46.6411 97.2897 46.7772C97.5877 46.9134 97.9145 46.9763 98.2423 46.9609C98.5716 46.9754 98.8997 46.912 99.1993 46.776C99.4989 46.6401 99.7614 46.4354 99.9651 46.1789C100.41 45.5433 100.626 44.7785 100.58 44.0068C100.627 43.2318 100.394 42.4653 99.9212 41.8456C99.7169 41.5933 99.4555 41.3921 99.1582 41.2581C98.8608 41.1242 98.5358 41.0613 98.2094 41.0745" fill="#293666"/>
<path d="M164.445 45.5163C164.346 45.6687 164.209 45.794 164.048 45.8808C163.887 45.9676 163.707 46.0131 163.524 46.0131C163.34 46.0131 163.16 45.9676 162.999 45.8808C162.838 45.794 162.701 45.6687 162.602 45.5163C162.362 45.0346 162.252 44.4995 162.284 43.9632C162.253 43.4341 162.363 42.9062 162.602 42.4319C162.701 42.2795 162.838 42.1542 162.999 42.0674C163.16 41.9806 163.34 41.9351 163.524 41.9351C163.707 41.9351 163.887 41.9806 164.048 42.0674C164.209 42.1542 164.346 42.2795 164.445 42.4319C164.684 42.9062 164.794 43.4341 164.764 43.9632C164.801 44.4998 164.691 45.0364 164.445 45.5163ZM163.524 41.0852C163.198 41.0746 162.873 41.1386 162.576 41.2724C162.28 41.4061 162.018 41.606 161.812 41.8563C161.366 42.4629 161.145 43.2033 161.186 43.9524C161.138 44.7259 161.358 45.4925 161.812 46.1245C162.013 46.3814 162.273 46.5867 162.571 46.7228C162.869 46.8589 163.196 46.9219 163.524 46.9064C163.853 46.921 164.181 46.8576 164.481 46.7216C164.78 46.5856 165.043 46.3809 165.246 46.1245C165.691 45.4889 165.907 44.7241 165.861 43.9524C165.902 43.2033 165.682 42.4629 165.235 41.8563C165.031 41.604 164.77 41.4028 164.472 41.2689C164.175 41.1349 163.85 41.072 163.524 41.0852Z" fill="#293666"/>
<path d="M180.237 44.7884C180.26 45.1224 180.219 45.4579 180.116 45.7767C180.075 45.8551 180.011 45.9197 179.933 45.9622C179.855 46.0048 179.766 46.0234 179.677 46.0156C179.59 46.0202 179.502 46.0027 179.424 45.9647C179.345 45.9267 179.277 45.8695 179.227 45.7984C179.115 45.5999 179.061 45.374 179.073 45.1468V45.0382H178.075V45.1034C178.042 45.5844 178.19 46.0605 178.492 46.4392C178.65 46.5965 178.841 46.7186 179.051 46.7972C179.261 46.8759 179.486 46.9093 179.71 46.8953C179.931 46.9109 180.153 46.8758 180.359 46.793C180.564 46.7101 180.748 46.5817 180.895 46.4175C181.181 45.9953 181.316 45.4908 181.279 44.9839V41.1719H180.237V44.7884Z" fill="#293666"/>
<path d="M176.03 45.6898L174.187 41.1719H172.684V46.7976H173.616V42.1385L175.526 46.7976H176.974V41.1719H176.03V45.6898Z" fill="#293666"/>
<path d="M140.349 43.442C140.173 43.556 139.966 43.6129 139.756 43.6049H138.988V42.041H139.811C140.025 42.0395 140.235 42.0999 140.414 42.2148C140.494 42.2983 140.553 42.3979 140.589 42.5068C140.626 42.6156 140.637 42.731 140.623 42.8447C140.634 42.9542 140.621 43.0649 140.583 43.1683C140.545 43.2718 140.483 43.3654 140.403 43.442H140.349ZM141.622 45.853L141.534 45.0385C141.52 44.762 141.437 44.4932 141.292 44.2566C141.139 44.0909 140.926 43.9899 140.7 43.9742C140.99 43.9161 141.248 43.7535 141.424 43.518C141.594 43.2367 141.674 42.9112 141.654 42.584C141.675 42.3843 141.649 42.1826 141.579 41.9944C141.508 41.8061 141.395 41.6363 141.248 41.498C140.887 41.2384 140.443 41.1152 139.997 41.1505H137.891V46.7762H138.988V44.5281H139.888C140.064 44.5081 140.241 44.5463 140.393 44.6367C140.488 44.8294 140.537 45.0412 140.535 45.2557L140.601 46.1137C140.609 46.2524 140.627 46.3904 140.656 46.5264C140.673 46.6189 140.699 46.7098 140.733 46.7979H141.83C141.76 46.6795 141.708 46.5513 141.676 46.4178C141.626 46.2329 141.593 46.0439 141.578 45.853" fill="#293666"/>
<path d="M169.899 45.4186C169.734 45.619 169.506 45.7601 169.252 45.8204C169.099 45.8375 168.944 45.8375 168.791 45.8204H168.253V42.0953H168.791C168.946 42.096 169.101 42.1142 169.252 42.1496C169.509 42.2024 169.739 42.345 169.899 42.5514C170.167 42.9885 170.289 43.4973 170.251 44.0067C170.288 44.5023 170.165 44.9966 169.899 45.4186ZM170.415 41.6391C170.213 41.478 169.982 41.3563 169.735 41.2807C169.577 41.2374 169.415 41.2084 169.252 41.1938H168.747H167.211V46.8196H168.747C168.915 46.8311 169.084 46.8311 169.252 46.8196C169.794 46.7733 170.301 46.5341 170.678 46.1462C171.157 45.5545 171.392 44.806 171.337 44.0502C171.346 43.5732 171.268 43.0985 171.106 42.6492C170.969 42.2738 170.73 41.9431 170.415 41.6934" fill="#293666"/>
<path d="M184.677 44.6689H183.975L184.688 42.3882V42.2796L185.357 44.6689H184.677ZM184.677 41.1719H184.107L182.34 46.7976H183.316L183.701 45.5921H185.643L185.994 46.7976H187.091L185.379 41.1719H184.677Z" fill="#293666"/>
<path d="M146.052 45.5165C145.965 45.6824 145.832 45.8205 145.669 45.9147C145.506 46.0089 145.319 46.0553 145.13 46.0487C144.941 46.0553 144.754 46.0089 144.591 45.9147C144.428 45.8205 144.295 45.6824 144.208 45.5165C143.968 45.0348 143.859 44.4997 143.89 43.9634C143.859 43.4343 143.969 42.9064 144.208 42.4321C144.296 42.2671 144.429 42.1297 144.592 42.0356C144.755 41.9416 144.941 41.8946 145.13 41.9C145.319 41.8933 145.506 41.9398 145.669 42.034C145.832 42.1281 145.965 42.2662 146.052 42.4321C146.291 42.9064 146.401 43.4343 146.37 43.9634C146.401 44.4997 146.292 45.0348 146.052 45.5165ZM145.141 41.0854C144.807 41.0649 144.472 41.1231 144.165 41.2552C143.858 41.3874 143.587 41.5897 143.374 41.8457C142.928 42.4522 142.707 43.1926 142.749 43.9417C142.7 44.7153 142.921 45.4819 143.374 46.1138C143.576 46.3694 143.837 46.5737 144.135 46.7097C144.432 46.8457 144.759 46.9095 145.086 46.8958C145.414 46.9095 145.74 46.8457 146.038 46.7097C146.335 46.5737 146.596 46.3694 146.798 46.1138C147.243 45.4783 147.459 44.7134 147.412 43.9417C147.454 43.1926 147.233 42.4522 146.787 41.8457C146.584 41.5949 146.324 41.3946 146.029 41.2607C145.734 41.1268 145.411 41.0631 145.086 41.0746" fill="#293666"/>
<path d="M158.045 45.5704L156.751 41.1719H155.609L157.398 46.7976H158.572L160.372 41.1719H159.307L158.045 45.5704Z" fill="#293666"/>
<path d="M149.863 41.1719H148.82V46.7976H149.863V41.1719Z" fill="#293666"/>
<path d="M154.721 42.2579V41.1719H151.21V42.0624H153.613L151.078 45.7224V46.7976H154.787V45.8636H152.208L154.721 42.2579Z" fill="#293666"/>
<path d="M232.521 42.2579V41.1719H228.932V42.0624H231.39L228.801 45.7224V46.7976H232.587V45.8636H229.953L232.521 42.2579Z" fill="#293666"/>
<path d="M235.802 44.6689H235.078L235.802 42.3882V42.2796L236.483 44.6689H235.802ZM235.802 41.1719H235.221L233.41 46.7976H234.453L234.837 45.5921H236.812L237.174 46.7976H238.271L236.527 41.1719H235.802Z" fill="#293666"/>
<path d="M231.305 39.2715L230.713 40.0969L230.12 39.2715H229.648L230.307 40.6833H231.119L231.788 39.2715H231.305Z" fill="#293666"/>
<path d="M225.587 44.6689H224.863L225.587 42.3882V42.2796L226.279 44.6689H225.587ZM225.587 41.1719H225.017L223.195 46.7976H224.205L224.6 45.5921H226.575L226.926 46.7976H228.024L226.29 41.1719H225.587Z" fill="#293666"/>
<path d="M203.092 45.2337L202.049 41.1719H200.359V46.7976H201.314V42.0407L202.62 46.7976H203.564L204.869 42.0407V46.7976H205.857V41.1719H204.134L203.092 45.2337Z" fill="#293666"/>
<path d="M210.574 45.5161C210.476 45.6799 210.336 45.8152 210.169 45.9086C210.001 46.002 209.812 46.0502 209.619 46.0483C209.429 46.0483 209.242 45.9992 209.076 45.9059C208.911 45.8126 208.773 45.6783 208.676 45.5161C208.436 45.0344 208.326 44.4993 208.358 43.9631C208.324 43.4325 208.438 42.9031 208.687 42.4318C208.777 42.2658 208.912 42.1281 209.076 42.034C209.241 41.94 209.429 41.8934 209.619 41.8996C209.811 41.8927 210.001 41.9388 210.168 42.0328C210.335 42.1268 210.471 42.265 210.563 42.4318C210.812 42.9031 210.925 43.4325 210.892 43.9631C210.924 44.4993 210.814 45.0344 210.574 45.5161ZM209.63 41.0851C209.301 41.0719 208.973 41.1346 208.672 41.2685C208.371 41.4023 208.106 41.6035 207.897 41.8562C207.433 42.4551 207.204 43.1992 207.249 43.9522C207.198 44.7276 207.424 45.4962 207.886 46.1243C208.094 46.3812 208.361 46.5858 208.664 46.7217C208.967 46.8575 209.298 46.9208 209.63 46.9063C209.963 46.9225 210.295 46.8601 210.598 46.7241C210.902 46.5881 211.168 46.3825 211.375 46.1243C211.832 45.4938 212.057 44.727 212.012 43.9522C212.062 43.202 211.849 42.4577 211.408 41.8453C211.2 41.592 210.935 41.3903 210.634 41.2564C210.333 41.1226 210.004 41.0602 209.674 41.0742" fill="#293666"/>
<path d="M216.81 45.6898L214.934 41.1719H213.387V46.7976H214.352V42.1385L216.295 46.7976H217.776V41.1719H216.81V45.6898Z" fill="#293666"/>
<path d="M218.906 42.0842H220.377V46.7976H221.452V42.0842H222.922V41.1719H218.906V42.0842Z" fill="#293666"/>
<path d="M263.829 45.5054H263.094V46.5154H263.829V45.5054Z" fill="#293666"/>
<path d="M261.413 45.2557C261.352 45.4128 261.243 45.5472 261.102 45.6405C260.96 45.7339 260.793 45.7816 260.623 45.7771C260.453 45.78 260.287 45.7317 260.146 45.6386C260.004 45.5454 259.895 45.4119 259.833 45.2557C259.63 44.7752 259.54 44.2553 259.569 43.7353C259.543 43.219 259.633 42.7033 259.833 42.2257C259.901 42.0742 260.011 41.9453 260.152 41.8548C260.292 41.7642 260.455 41.7157 260.623 41.7152C260.791 41.7143 260.955 41.7622 261.095 41.853C261.236 41.9437 261.346 42.0733 261.413 42.2257C261.78 43.203 261.78 44.2785 261.413 45.2557ZM260.634 40.9116C260.346 40.9064 260.061 40.9733 259.806 41.1063C259.55 41.2392 259.333 41.4337 259.174 41.6718C258.788 42.2856 258.6 43.0019 258.637 43.7244C258.587 44.4859 258.775 45.2441 259.174 45.8965C259.329 46.1383 259.546 46.3357 259.802 46.4691C260.058 46.6025 260.345 46.6672 260.634 46.6568C260.923 46.6672 261.21 46.6025 261.466 46.4691C261.722 46.3357 261.938 46.1383 262.093 45.8965C262.489 45.2429 262.673 44.4847 262.62 43.7244C262.662 43.0014 262.474 42.2836 262.082 41.6718C261.927 41.4331 261.712 41.2379 261.458 41.1048C261.205 40.9717 260.921 40.9052 260.634 40.9116Z" fill="#293666"/>
<path d="M257.927 45.5054H257.191V46.5154H257.927V45.5054Z" fill="#293666"/>
<path d="M249.586 45.1579C249.458 45.3501 249.263 45.4891 249.038 45.5488C248.909 45.5844 248.776 45.6026 248.643 45.6031H248.193V41.8997H248.643C248.776 41.9002 248.909 41.9185 249.038 41.954C249.263 42.0183 249.458 42.161 249.586 42.3559C249.82 42.7926 249.927 43.2853 249.894 43.7786C249.926 44.2579 249.82 44.7365 249.586 45.1579ZM250.036 41.4544C249.866 41.2983 249.664 41.1798 249.444 41.1069C249.312 41.0631 249.176 41.0339 249.038 41.02H248.61H247.293V46.5154H248.61C248.752 46.5266 248.895 46.5266 249.038 46.5154C249.514 46.457 249.95 46.2199 250.256 45.8529C250.669 45.2499 250.866 44.5272 250.815 43.8003C250.824 43.3367 250.757 42.8747 250.618 42.4319C250.505 42.0745 250.306 41.75 250.036 41.487" fill="#293666"/>
<path d="M252.02 45.5054H251.285V46.5154H252.02V45.5054Z" fill="#293666"/>
<path d="M255.511 45.2559C255.45 45.4129 255.341 45.5473 255.2 45.6407C255.058 45.734 254.891 45.7817 254.721 45.7772C254.551 45.7801 254.385 45.7318 254.244 45.6387C254.102 45.5455 253.993 45.412 253.931 45.2559C253.728 44.7753 253.638 44.2554 253.667 43.7354C253.641 43.2191 253.731 42.7034 253.931 42.2258C254 42.0753 254.111 41.9476 254.251 41.8581C254.391 41.7685 254.554 41.7209 254.721 41.7209C254.888 41.7209 255.051 41.7685 255.191 41.8581C255.331 41.9476 255.442 42.0753 255.511 42.2258C255.878 43.2031 255.878 44.2786 255.511 45.2559ZM254.721 40.9117C254.433 40.9065 254.148 40.9735 253.893 41.1064C253.637 41.2393 253.42 41.4338 253.261 41.6719C252.875 42.2857 252.687 43.002 252.724 43.7245C252.671 44.4848 252.855 45.243 253.251 45.8966C253.409 46.1378 253.627 46.3344 253.885 46.4676C254.143 46.6008 254.43 46.666 254.721 46.6569C255.012 46.667 255.3 46.6023 255.558 46.4691C255.815 46.3358 256.034 46.1385 256.191 45.8966C256.587 45.243 256.771 44.4848 256.718 43.7245C256.76 43.0015 256.572 42.2837 256.18 41.6719C256.023 41.4323 255.806 41.2367 255.551 41.1036C255.295 40.9705 255.01 40.9044 254.721 40.9117Z" fill="#293666"/>
</g>
<defs>
<clipPath id="clip0_1779_72">
<rect width="267" height="52" fill="white"/>
</clipPath>
</defs>
</svg>
